<svg width="4417" height="1247" xmlns="http://www.w3.org/2000/svg" xmlns:xlink="http://www.w3.org/1999/xlink" xml:space="preserve" overflow="hidden"><defs><clipPath id="clip0"><rect x="2724" y="599" width="1131" height="851"/></clipPath><clipPath id="clip1"><rect x="2724" y="599" width="1131" height="851"/></clipPath><clipPath id="clip2"><rect x="2724" y="599" width="1131" height="851"/></clipPath><clipPath id="clip3"><rect x="2724" y="599" width="1131" height="851"/></clipPath></defs><g transform="translate(17 -422)"><text fill="#060605" font-family="Funnel Display,Funnel Display_MSFontService,sans-serif" font-weight="400" font-size="541" transform="matrix(1 0 0 1 307.587 1124)">Butterfly</text><text fill="#060605" font-family="Funnel Display,Funnel Display_MSFontService,sans-serif" font-weight="400" font-size="202" transform="matrix(1 0 0 1 2545.97 1124)"> </text><text fill="#060605" font-family="Funnel Display,Funnel Display_MSFontService,sans-serif" font-weight="400" font-size="202" transform="matrix(1 0 0 1 2595.82 1124)"> </text><text fill="#060605" font-family="Funnel Display,Funnel Display_MSFontService,sans-serif" font-weight="400" font-size="220" transform="matrix(1 0 0 1 338.354 1445)">Cognitive Interactions</text><g clip-path="url(#clip0)"><g clip-path="url(#clip1)"><g clip-path="url(#clip2)"><g clip-path="url(#clip3)"><path d="M0 484.219C-3.2695e-14 216.792 114.976-6.16475e-14 256.807-1.23295e-13 398.638-2.4659e-13 513.614 216.792 513.614 484.219 513.614 751.648 398.638 968.441 256.807 968.441 114.976 968.441-1.63475e-13 751.648 0 484.219Z" stroke="#060605" stroke-width="15.305" stroke-miterlimit="8" fill="none" fill-rule="evenodd" transform="matrix(-0.794106 -0.607975 -0.608254 0.793743 3986.53 795.962)"/><path d="M1927.12 929.274C1764.52 717.006 1723.98 475.026 1836.56 388.796 1949.14 302.566 2172.2 404.741 2334.8 617.009 2497.38 829.276 2537.92 1071.26 2425.35 1157.49 2312.77 1243.71 2089.71 1141.54 1927.12 929.274Z" stroke="#060605" stroke-width="20.4032" stroke-miterlimit="8" fill="none" fill-rule="evenodd" transform="matrix(1.00046 0 0 1 962.097 251.033)"/><path d="M0 424.344C-2.86521e-14 189.985 100.759-5.40246e-14 225.052-1.08049e-13 349.345-2.16098e-13 450.104 189.985 450.104 424.344 450.104 658.702 349.345 848.687 225.052 848.687 100.759 848.687-1.43261e-13 658.702 0 424.344Z" stroke="#060605" stroke-width="20.4067" stroke-miterlimit="8" fill="none" fill-rule="evenodd" transform="matrix(-0.794106 -0.607975 -0.608254 0.793743 3909.44 857.447)"/><path d="M1936.87 886.798C1794.39 700.776 1758.86 488.717 1857.52 413.15 1956.18 337.583 2151.66 427.123 2294.15 613.143 2436.63 799.161 2472.16 1011.22 2373.5 1086.79 2274.84 1162.36 2079.36 1072.82 1936.87 886.798Z" stroke="#060605" stroke-width="15.3024" stroke-miterlimit="8" fill="none" fill-rule="evenodd" transform="matrix(1.00046 0 0 1 962.097 251.033)"/><path d="M0 242.299C-1.63603e-14 108.481 57.5333-3.0848e-14 128.504-6.16959e-14 199.476-1.23392e-13 257.008 108.481 257.008 242.299 257.008 376.118 199.476 484.599 128.504 484.599 57.5333 484.599-8.18018e-14 376.118 0 242.299Z" stroke="#060605" stroke-width="15.305" stroke-miterlimit="8" fill="none" fill-rule="evenodd" transform="matrix(-0.794106 -0.607975 -0.608254 0.793743 3634.71 962.272)"/><path d="M2036.98 902.92C1930.83 764.342 1904.36 606.363 1977.86 550.067 2051.35 493.771 2196.99 560.477 2303.14 699.057 2409.29 837.638 2435.75 995.618 2362.26 1051.92 2288.76 1108.21 2143.12 1041.51 2036.98 902.92Z" stroke="#060605" stroke-width="20.4032" stroke-miterlimit="8" fill="none" fill-rule="evenodd" transform="matrix(1.00046 0 0 1 962.097 251.033)"/></g></g></g></g><rect x="0" y="1561" width="964" height="108" fill="#325692"/><rect x="964" y="1561" width="1235" height="108" fill="#EB4E1D"/><rect x="2199" y="1561" width="1235" height="108" fill="#060605"/><rect x="3434" y="1561" width="966" height="108" fill="#2E7A3B"/></g></svg>