<svg width="2399" height="1971" xmlns="http://www.w3.org/2000/svg" xmlns:xlink="http://www.w3.org/1999/xlink" xml:space="preserve" overflow="hidden"><defs><clipPath id="clip0"><rect x="962" y="484" width="2399" height="1971"/></clipPath><clipPath id="clip1"><rect x="1376" y="484" width="1572" height="1186"/></clipPath><clipPath id="clip2"><rect x="1376" y="484" width="1572" height="1186"/></clipPath><clipPath id="clip3"><rect x="1376" y="484" width="1572" height="1186"/></clipPath><clipPath id="clip4"><rect x="1376" y="484" width="1572" height="1186"/></clipPath></defs><g clip-path="url(#clip0)" transform="translate(-962 -484)"><text fill="#060605" font-family="Funnel Display,Funnel Display_MSFontService,sans-serif" font-weight="400" font-size="449" transform="matrix(1 0 0 1 1232.49 2077)">Butterfly</text><text fill="#060605" font-family="Funnel Display,Funnel Display_MSFontService,sans-serif" font-weight="400" font-size="183" transform="matrix(1 0 0 1 3091.03 2077)"> </text><text fill="#060605" font-family="Funnel Display,Funnel Display_MSFontService,sans-serif" font-weight="400" font-size="183" transform="matrix(1 0 0 1 3136.29 2077)"> </text><g clip-path="url(#clip1)"><g clip-path="url(#clip2)"><g clip-path="url(#clip3)"><g clip-path="url(#clip4)"><path d="M0 674.526C-4.55447e-14 301.996 160.164-8.58761e-14 357.737-1.71752e-13 555.31-3.43505e-13 715.474 301.996 715.474 674.526 715.474 1047.06 555.31 1349.06 357.737 1349.06 160.164 1349.06-2.27724e-13 1047.06 0 674.526Z" stroke="#060605" stroke-width="21.3202" stroke-miterlimit="8" fill="none" fill-rule="evenodd" transform="matrix(-0.793743 -0.608253 -0.607976 0.794105 3132.53 758.496)"/><path d="M2684.51 1294.5C2458.01 998.804 2401.54 661.72 2558.36 541.601 2715.19 421.481 3025.92 563.813 3252.42 859.506 3478.91 1155.2 3535.38 1492.28 3378.56 1612.4 3221.73 1732.52 2911 1590.19 2684.51 1294.5Z" stroke="#060605" stroke-width="28.4221" stroke-miterlimit="8" fill="none" fill-rule="evenodd" transform="matrix(1 0 0 1.00046 -1078.64 -0.946791)"/><path d="M0 591.119C-3.9913e-14 264.653 140.36-7.52573e-14 313.502-1.50515e-13 486.644-3.01029e-13 627.004 264.653 627.004 591.119 627.004 917.584 486.644 1182.24 313.502 1182.24 140.36 1182.24-1.99565e-13 917.584 0 591.119Z" stroke="#060605" stroke-width="28.4269" stroke-miterlimit="8" fill="none" fill-rule="evenodd" transform="matrix(-0.793743 -0.608253 -0.607976 0.794105 3025.19 844.186)"/><path d="M2698.1 1235.33C2499.62 976.194 2450.13 680.793 2587.56 575.527 2725 470.26 2997.3 594.991 3195.79 854.121 3394.27 1113.25 3443.77 1408.65 3306.34 1513.92 3168.9 1619.19 2896.59 1494.45 2698.1 1235.33Z" stroke="#060605" stroke-width="21.3166" stroke-miterlimit="8" fill="none" fill-rule="evenodd" transform="matrix(1 0 0 1.00046 -1078.64 -0.946791)"/><path d="M0 337.527C-2.27902e-14 151.116 80.145-4.29718e-14 179.009-8.59435e-14 277.873-1.71887e-13 358.017 151.116 358.017 337.527 358.017 523.939 277.873 675.056 179.009 675.056 80.145 675.056-1.13951e-13 523.939 0 337.527Z" stroke="#060605" stroke-width="21.3202" stroke-miterlimit="8" fill="none" fill-rule="evenodd" transform="matrix(-0.793743 -0.608253 -0.607976 0.794105 2642.66 990.275)"/><path d="M2837.56 1257.79C2689.69 1064.74 2652.81 844.676 2755.2 766.254 2857.58 687.833 3060.45 780.755 3208.32 973.801 3356.18 1166.85 3393.05 1386.92 3290.67 1465.34 3188.29 1543.75 2985.42 1450.84 2837.56 1257.79Z" stroke="#060605" stroke-width="28.4221" stroke-miterlimit="8" fill="none" fill-rule="evenodd" transform="matrix(1 0 0 1.00046 -1078.64 -0.946791)"/></g></g></g></g></g></svg>