<svg width="4570" height="1368" xmlns="http://www.w3.org/2000/svg" xmlns:xlink="http://www.w3.org/1999/xlink" xml:space="preserve" overflow="hidden"><defs><clipPath id="clip0"><rect x="-170" y="504" width="4570" height="1368"/></clipPath><clipPath id="clip1"><rect x="3033" y="599" width="1130" height="851"/></clipPath><clipPath id="clip2"><rect x="3033" y="599" width="1130" height="851"/></clipPath><clipPath id="clip3"><rect x="3033" y="599" width="1130" height="851"/></clipPath><clipPath id="clip4"><rect x="3033" y="599" width="1130" height="851"/></clipPath></defs><g clip-path="url(#clip0)" transform="translate(170 -504)"><text fill="#060605" font-family="Funnel Display,Funnel Display_MSFontService,sans-serif" font-weight="400" font-size="651" transform="matrix(1 0 0 1 221.443 1325)">Butterfly</text><text fill="#060605" font-family="Funnel Display,Funnel Display_MSFontService,sans-serif" font-weight="400" font-size="220" transform="matrix(1 0 0 1 2915.87 1325)"> </text><text fill="#060605" font-family="Funnel Display,Funnel Display_MSFontService,sans-serif" font-weight="400" font-size="220" transform="matrix(1 0 0 1 2970.3 1325)"> </text><g clip-path="url(#clip1)"><g clip-path="url(#clip2)"><g clip-path="url(#clip3)"><g clip-path="url(#clip4)"><path d="M0 484.006C-3.26806e-14 216.697 114.926-6.16204e-14 256.694-1.23241e-13 398.463-2.46482e-13 513.389 216.697 513.389 484.006 513.389 751.318 398.463 968.016 256.694 968.016 114.926 968.016-1.63403e-13 751.318 0 484.006Z" stroke="#060605" stroke-width="15.2983" stroke-miterlimit="8" fill="none" fill-rule="evenodd" transform="matrix(-0.793751 -0.608242 -0.607982 0.794092 4294.41 795.962)"/><path d="M1926.29 928.876C1763.77 716.699 1723.24 474.822 1835.77 388.63 1948.3 302.437 2171.27 404.568 2333.8 616.745 2496.31 828.921 2536.84 1070.8 2424.31 1156.99 2311.78 1243.18 2088.81 1141.05 1926.29 928.876Z" stroke="#060605" stroke-width="20.3945" stroke-miterlimit="8" fill="none" fill-rule="evenodd" transform="matrix(1 0 0 1.00043 1272.66 251.033)"/><path d="M0 424.157C-2.86396e-14 189.902 100.715-5.40009e-14 224.953-1.08002e-13 349.192-2.16004e-13 449.907 189.902 449.907 424.157 449.907 658.413 349.192 848.315 224.953 848.315 100.715 848.315-1.43198e-13 658.413 0 424.157Z" stroke="#060605" stroke-width="20.3977" stroke-miterlimit="8" fill="none" fill-rule="evenodd" transform="matrix(-0.793751 -0.608242 -0.607982 0.794092 4217.39 857.447)"/><path d="M1936.04 886.418C1793.62 700.476 1758.11 488.508 1856.72 412.973 1955.34 337.438 2150.74 426.94 2293.16 612.881 2435.58 798.818 2471.1 1010.79 2372.49 1086.32 2273.87 1161.86 2078.47 1072.36 1936.04 886.418Z" stroke="#060605" stroke-width="15.2959" stroke-miterlimit="8" fill="none" fill-rule="evenodd" transform="matrix(1 0 0 1.00043 1272.66 251.033)"/><path d="M0 242.193C-1.63531e-14 108.433 57.508-3.08344e-14 128.448-6.16688e-14 199.388-1.23338e-13 256.895 108.433 256.895 242.193 256.895 375.953 199.388 484.386 128.448 484.386 57.508 484.386-8.17659e-14 375.953 0 242.193Z" stroke="#060605" stroke-width="15.2983" stroke-miterlimit="8" fill="none" fill-rule="evenodd" transform="matrix(-0.793751 -0.608242 -0.607982 0.794092 3942.9 962.272)"/><path d="M2036.11 902.534C1930.01 764.014 1903.55 606.103 1977.01 549.832 2050.48 493.56 2196.05 560.236 2302.15 698.758 2408.25 837.279 2434.71 995.191 2361.24 1051.47 2287.78 1107.73 2142.21 1041.06 2036.11 902.534Z" stroke="#060605" stroke-width="20.3945" stroke-miterlimit="8" fill="none" fill-rule="evenodd" transform="matrix(1 0 0 1.00043 1272.66 251.033)"/></g></g></g></g><rect x="0" y="1561" width="964" height="108" fill="#325692"/><rect x="964" y="1561" width="1235" height="108" fill="#EB4E1D"/><rect x="2199" y="1561" width="1235" height="108" fill="#060605"/><rect x="3434" y="1561" width="966" height="108" fill="#2E7A3B"/></g></svg>