<svg width="4552" height="1439" xmlns="http://www.w3.org/2000/svg" xmlns:xlink="http://www.w3.org/1999/xlink" xml:space="preserve" overflow="hidden"><defs><clipPath id="clip0"><rect x="-170" y="433" width="4552" height="1439"/></clipPath><clipPath id="clip1"><rect x="3033" y="433" width="1350" height="1017"/></clipPath><clipPath id="clip2"><rect x="3033" y="433" width="1350" height="1017"/></clipPath><clipPath id="clip3"><rect x="3033" y="433" width="1350" height="1017"/></clipPath><clipPath id="clip4"><rect x="3033" y="433" width="1350" height="1017"/></clipPath></defs><g clip-path="url(#clip0)" transform="translate(170 -433)"><text fill="#060605" font-family="Funnel Display,Funnel Display_MSFontService,sans-serif" font-weight="400" font-size="651" transform="matrix(1 0 0 1 221.443 1325)">Butterfly</text><text fill="#060605" font-family="Funnel Display,Funnel Display_MSFontService,sans-serif" font-weight="400" font-size="220" transform="matrix(1 0 0 1 2915.87 1325)"> </text><text fill="#060605" font-family="Funnel Display,Funnel Display_MSFontService,sans-serif" font-weight="400" font-size="220" transform="matrix(1 0 0 1 2970.3 1325)"> </text><g clip-path="url(#clip1)"><g clip-path="url(#clip2)"><g clip-path="url(#clip3)"><g clip-path="url(#clip4)"><path d="M0 578.41C-3.90548e-14 258.963 137.342-7.36393e-14 306.762-1.47278e-13 476.182-2.94558e-13 613.523 258.963 613.523 578.41 613.523 897.86 476.182 1156.82 306.762 1156.82 137.342 1156.82-1.95275e-13 897.86 0 578.41Z" stroke="#060605" stroke-width="18.2822" stroke-miterlimit="8" fill="none" fill-rule="evenodd" transform="matrix(-0.793744 -0.608252 -0.607976 0.794104 4540.23 668.382)"/><path d="M2301.99 1110.04C2107.76 856.481 2059.34 567.429 2193.81 464.426 2328.29 361.423 2594.75 483.473 2788.97 737.032 2983.18 990.59 3031.61 1279.64 2897.14 1382.64 2762.66 1485.65 2496.2 1363.6 2301.99 1110.04Z" stroke="#060605" stroke-width="24.3721" stroke-miterlimit="8" fill="none" fill-rule="evenodd" transform="matrix(1 0 0 1.00045 929.134 17.1563)"/><path d="M0 506.888C-3.42256e-14 226.942 120.359-6.45336e-14 268.83-1.29067e-13 417.3-2.58134e-13 537.659 226.942 537.659 506.888 537.659 786.834 417.3 1013.78 268.83 1013.78 120.359 1013.78-1.71128e-13 786.834 0 506.888Z" stroke="#060605" stroke-width="24.3762" stroke-miterlimit="8" fill="none" fill-rule="evenodd" transform="matrix(-0.793744 -0.608252 -0.607976 0.794104 4448.19 741.861)"/><path d="M2313.64 1059.3C2143.44 837.093 2101 583.784 2218.85 493.518 2336.7 403.251 2570.2 510.209 2740.41 732.414 2910.61 954.616 2953.05 1207.93 2835.21 1298.19 2717.35 1388.47 2483.85 1281.5 2313.64 1059.3Z" stroke="#060605" stroke-width="18.2791" stroke-miterlimit="8" fill="none" fill-rule="evenodd" transform="matrix(1 0 0 1.00045 929.134 17.1563)"/><path d="M0 289.432C-1.95427e-14 129.583 68.7248-3.68486e-14 153.501-7.36971e-14 238.278-1.47394e-13 307.002 129.583 307.002 289.432 307.002 449.281 238.278 578.864 153.501 578.864 68.7248 578.864-9.7714e-14 449.281 0 289.432Z" stroke="#060605" stroke-width="18.2822" stroke-miterlimit="8" fill="none" fill-rule="evenodd" transform="matrix(-0.793744 -0.608252 -0.607976 0.794104 4120.17 867.133)"/><path d="M2433.22 1078.56C2306.43 913.024 2274.81 724.315 2362.6 657.068 2450.39 589.821 2624.36 669.502 2751.15 835.041 2877.95 1000.58 2909.56 1189.29 2821.77 1256.54 2733.98 1323.78 2560.01 1244.1 2433.22 1078.56Z" stroke="#060605" stroke-width="24.3721" stroke-miterlimit="8" fill="none" fill-rule="evenodd" transform="matrix(1 0 0 1.00045 929.134 17.1563)"/></g></g></g></g></g></svg>