<svg width="1521" height="1147" xmlns="http://www.w3.org/2000/svg" xmlns:xlink="http://www.w3.org/1999/xlink" xml:space="preserve" overflow="hidden"><defs><clipPath id="clip0"><rect x="2375" y="469" width="1521" height="1147"/></clipPath></defs><g clip-path="url(#clip0)" transform="translate(-2375 -469)"><path d="M0 652.533C-4.40597e-14 292.149 154.942-8.30761e-14 346.073-1.66152e-13 537.204-3.32305e-13 692.146 292.149 692.146 652.533 692.146 1012.92 537.204 1305.07 346.073 1305.07 154.942 1305.07-2.20299e-13 1012.92 0 652.533Z" stroke="#060605" stroke-width="20.625" stroke-miterlimit="8" fill="none" fill-rule="evenodd" transform="matrix(-0.793877 -0.608078 -0.608078 0.793877 4074.54 734.47)"/><path d="M2597.42 1252.5C2378.27 966.4 2323.63 640.252 2475.36 524.03 2627.1 407.807 2927.75 545.521 3146.9 831.621 3366.04 1117.72 3420.68 1443.87 3268.95 1560.09 3117.21 1676.31 2816.56 1538.6 2597.42 1252.5Z" stroke="#060605" stroke-width="27.5" stroke-miterlimit="8" fill="none" fill-rule="evenodd"/><path d="M0 571.845C-3.86116e-14 256.024 135.783-7.28035e-14 303.28-1.45607e-13 470.777-2.91214e-13 606.56 256.024 606.56 571.845 606.56 887.666 470.777 1143.69 303.28 1143.69 135.783 1143.69-1.93058e-13 887.666 0 571.845Z" stroke="#060605" stroke-width="27.5" stroke-miterlimit="8" fill="none" fill-rule="evenodd" transform="matrix(-0.793877 -0.608078 -0.608078 0.793877 3970.69 817.342)"/><path d="M2610.57 1195.25C2418.53 944.524 2370.64 658.706 2503.61 556.855 2636.59 455.003 2900.06 575.688 3092.11 826.411 3284.15 1077.13 3332.04 1362.95 3199.07 1464.8 3066.09 1566.66 2802.62 1445.97 2610.57 1195.25Z" stroke="#060605" stroke-width="20.625" stroke-miterlimit="8" fill="none" fill-rule="evenodd"/><path d="M0 326.522C-2.20471e-14 146.189 77.5318-4.15707e-14 173.172-8.31413e-14 268.813-1.66283e-13 346.344 146.189 346.344 326.522 346.344 506.856 268.813 653.045 173.172 653.045 77.5318 653.045-1.10236e-13 506.856 0 326.522Z" stroke="#060605" stroke-width="20.625" stroke-miterlimit="8" fill="none" fill-rule="evenodd" transform="matrix(-0.793877 -0.608078 -0.608078 0.793877 3600.57 958.627)"/><path d="M2745.5 1216.98C2602.43 1030.2 2566.75 817.272 2665.81 741.395 2764.87 665.518 2961.16 755.425 3104.23 942.208 3247.3 1128.99 3282.97 1341.92 3183.91 1417.8 3084.85 1493.67 2888.56 1403.77 2745.5 1216.98Z" stroke="#060605" stroke-width="27.5" stroke-miterlimit="8" fill="none" fill-rule="evenodd"/></g></svg>